<svg xmlns="http://www.w3.org/2000/svg" viewBox="0 0 1256.27 324.22"><g id="Lager_2" data-name="Lager 2"><g id="Lager_1-2" data-name="Lager 1"><path d="M92.13,75.29c-25.52,0-49,9.8-66,27.6C9.26,120.43,0,144.2,0,169.81s9.26,49.38,26.09,66.92c17.07,17.8,40.52,27.6,66,27.6s49-9.8,66-27.6c16.82-17.54,26.09-41.31,26.09-66.92s-9.27-49.38-26.09-66.92C141.1,85.09,117.65,75.29,92.13,75.29Zm0,159.47c-17.4,0-32.32-6.56-43.14-18.95-10.31-11.81-16-28.14-16-46s5.68-34.19,16-46c10.82-12.39,25.74-19,43.14-19s32.31,6.56,43.14,19c10.31,11.81,16,28.14,16,46s-5.68,34.19-16,46C124.44,228.2,109.53,234.76,92.13,234.76Z"/><path d="M345.86,61V78.71h49.62V107.6H345.86V260.91H314.23V107.6H246.62V260.91H215V124.41l12.82-12.83v-4h-47V78.71H215v-15C215,22,235.6,0,274.6,0a58.72,58.72,0,0,1,20.3,3.57l1.34.54v30l-3-1.27a43.7,43.7,0,0,0-15.93-3.25c-9.81,0-17,2.08-22,6.37-5.9,5.08-8.76,13.27-8.76,25V78.71h67.61v-15C314.23,22,334.84,0,373.84,0a58.72,58.72,0,0,1,20.3,3.57l1.34.54v30l-3-1.27a43.7,43.7,0,0,0-15.93-3.25c-9.81,0-17,2.08-22,6.37C348.72,41,345.86,49.22,345.86,61Z"/><path d="M575.29,172.63c-11.11-8.17-25.74-12.11-38.56-15.15-4.1-1-8.21-2-12.18-2.87-22.51-5.09-40.28-9.12-40.28-26.89,0-14.43,14.79-24.91,35.17-24.91,22.23,0,37.25,11.57,38.26,29.48l.11,2h33.74l-.18-2.29c-1.36-17.36-9.27-31.88-22.88-42-12.93-9.62-30.13-14.7-49.73-14.7-18.33,0-35.16,5.34-47.39,15-12.52,9.94-19.42,23.82-19.42,39.1,0,38.8,35.75,47.63,61.86,54.08l3.23.79c23.65,5.71,44.08,10.65,44.08,28.63,0,17.62-19.87,23.88-36.89,23.88-12.35,0-22.11-2.82-29-8.38-6.7-5.42-10.51-13.34-11.32-23.54l-.16-2h-35l.13,2.25c2.07,37,30.63,59.15,76.38,59.15,19.43,0,36.22-4.88,48.54-14.11,12.85-9.62,19.63-23.11,19.63-39C593.43,194.23,587.5,181.61,575.29,172.63Z"/><path d="M690.54,104.86c23.74,0,41.2,13.66,47.92,37.47l.5,1.79,33-4.71-.64-2.33c-11-39.85-39.64-61.79-80.76-61.79-26.09,0-48.31,9.47-64.25,27.4-15.11,17-23.43,40.83-23.43,67.12s8.32,50.13,23.43,67.12c15.94,17.93,38.16,27.4,64.25,27.4,41.12,0,69.8-21.94,80.76-61.79l.64-2.33-33-4.71-.5,1.79c-6.72,23.81-24.18,37.47-47.92,37.47-16.5,0-30.41-6.45-40.22-18.63-9.32-11.58-14.46-28-14.46-46.32s5.14-34.74,14.46-46.32C660.13,111.31,674,104.86,690.54,104.86Z"/><path d="M868.83,76.66c-19.72,0-36.78,8.49-46.12,22.56V78.71H791.08v182.2h31.63V158.17c0-16.2,3.68-28.66,10.94-37,7.82-9,20.11-13.56,36.55-13.56a53.27,53.27,0,0,1,10.19,1l2.55.51v-31l-1.71-.35A64.13,64.13,0,0,0,868.83,76.66Z"/><rect x="902.63" y="78.71" width="31.63" height="182.2"/><circle cx="918.45" cy="29.5" r="22.66"/><path d="M1057.72,75.29c-23.25,0-44.26,9.94-58.44,27.47V78.71H967.65V324.22h31.63V236.86c14.18,17.53,35.19,27.47,58.44,27.47,50.19,0,83.92-38,83.92-94.52S1107.91,75.29,1057.72,75.29Zm-4.11,30.26c32.91,0,55,25.82,55,64.26s-22.12,64.26-55,64.26c-17.14,0-31.36-6.58-41.14-19-9-11.4-13.88-27.46-13.88-45.23s4.93-34,13.88-45.35C1022.21,112.09,1036.44,105.55,1053.61,105.55Z"/><path d="M1206.65,107.6v95.06c0,24.37,12.29,29.36,30.73,29.36a44,44,0,0,0,15.93-3.25l3-1.27v30.67l-1.33.54a58,58,0,0,1-20.3,3.57c-18.56,0-32.41-4.29-42.35-13.11C1180.83,239,1175,222.65,1175,200.61v-76.2l12.83-12.83v-4H1134V78.71H1175v-49l31.63-11.86V78.71h49.62V107.6Z"/></g></g></svg>