<?xml version="1.0" encoding="UTF-8"?><svg id="Layer_2" xmlns="http://www.w3.org/2000/svg" viewBox="0 0 166.13 166.13"><defs><style>.cls-1{fill:#fff;}.cls-2{fill:#ffc91e;}.cls-3{fill:#231f20;}.cls-4{fill:#211f20;}.cls-5{stroke-width:2px;}.cls-5,.cls-6,.cls-7,.cls-8,.cls-9{fill:none;stroke-miterlimit:10;}.cls-5,.cls-6,.cls-8,.cls-9{stroke:#231f20;}.cls-7{stroke:#fff;}.cls-8{stroke-width:.25px;}.cls-9{stroke-width:.5px;}</style></defs><g id="Layer_1-2"><g><g><g><circle class="cls-5" cx="83.06" cy="83.06" r="60.71"/><g><path class="cls-3" d="m29.28,44.26c.23-.31.3-.66.21-1.05-.06-.25-.25-.7-.6-1.37l-4.33-8.4.29-.34,8.71,2.76c.98.31,1.63.48,1.97.5.34.03.62-.1.85-.38l.31.26-3.37,3.93-.31-.26c.32-.41.51-.7.57-.87.06-.17-.02-.34-.23-.52-.1-.08-.27-.17-.51-.28-.15-.06-.33-.12-.55-.2l-1-.32-2.34,2.73c.33.59.54.98.65,1.15.22.37.4.62.54.74.17.15.4.14.68-.02.16-.1.36-.29.6-.56l.31.26-2.12,2.48-.31-.26Zm1.35-6.75l-3.81-1.24-.09.1,1.87,3.51,2.03-2.37Z"/><path class="cls-3" d="m37.68,34.47c.49-.37.74-.69.76-.97.02-.28-.1-.59-.35-.92l-4.54-6.1c-.26-.35-.51-.52-.76-.5s-.6.16-1.05.45l-.24-.33,3.23-2.41,6.95,4.06.11-.08-1.92-7.81,3.23-2.41.24.33c-.41.36-.65.66-.71.9-.07.25.09.62.46,1.11l4.23,5.68c.35.47.66.72.93.75.27.03.63-.11,1.07-.42l.24.33-4.26,3.17-.24-.33c.37-.29.61-.57.72-.83.11-.26.02-.58-.27-.97l-4.67-6.27-.09.07,2.48,9.89-.34.26-8.69-5.02-.06.04,4.32,5.8c.32.43.63.68.94.76.31.08.74-.07,1.3-.46l.24.33-3,2.24-.24-.33Z"/><path class="cls-3" d="m51.16,24.97c.39-.19.65-.37.78-.54.22-.28.23-.64.04-1.07l-3.2-7.06c-.19-.42-.46-.65-.79-.67-.2-.02-.52.06-.95.23l-.17-.37,4.5-2.04c.87-.39,1.63-.62,2.3-.68,1.25-.12,2.1.32,2.55,1.31.27.6.27,1.18,0,1.73-.28.55-.65.99-1.12,1.32l.06.13c.59-.14,1.14-.18,1.65-.11,1,.13,1.69.63,2.08,1.49.37.81.29,1.63-.23,2.47-.52.84-1.4,1.54-2.63,2.1l-4.69,2.13-.17-.37Zm2.92-7.96c.18-.43.09-1.03-.25-1.77-.25-.55-.56-.98-.94-1.26-.37-.29-.85-.3-1.42-.04-.3.14-.49.28-.56.44-.07.16-.05.37.07.63l1.49,3.27c.9-.41,1.44-.83,1.61-1.26Zm.61,5.86c.21.15.49.16.83,0,.69-.31,1.08-.72,1.19-1.22.11-.5,0-1.1-.31-1.79-.47-1.03-1.09-1.58-1.85-1.65-.46-.04-1.09.13-1.88.5l1.66,3.64c.12.25.24.42.37.51Z"/><path class="cls-3" d="m61.46,20.36c.37-.12.62-.37.77-.74.1-.23.19-.72.3-1.46l1.28-9.36.43-.11,5.54,7.26c.62.82,1.06,1.33,1.32,1.55s.56.27.91.17l.1.39-5.02,1.28-.1-.39c.5-.15.82-.28.96-.38.14-.11.18-.29.11-.56-.03-.12-.12-.29-.26-.52-.09-.13-.2-.29-.34-.48l-.63-.84-3.48.89c-.07.67-.11,1.11-.13,1.31-.03.43-.03.74.02.92.06.22.25.35.57.37.19,0,.46-.03.82-.11l.1.39-3.16.81-.1-.39Zm4.99-4.75l-2.41-3.21-.13.03-.48,3.95,3.02-.77Z"/><path class="cls-3" d="m73.98,14.13l.46-.03c.34,1.17.82,2.01,1.43,2.51.61.5,1.27.72,2.01.67.71-.05,1.2-.28,1.47-.67.27-.39.39-.8.36-1.21-.04-.48-.22-.86-.56-1.13-.22-.18-.66-.41-1.32-.68l-1.05-.44c-1.05-.43-1.8-.88-2.25-1.35-.45-.47-.71-1.07-.76-1.8-.06-.78.16-1.53.66-2.24.5-.72,1.31-1.12,2.45-1.2.58-.04,1.14,0,1.69.14.55.14.87.2.94.2.17-.01.29-.07.35-.18.06-.11.1-.24.13-.41l.48-.04.26,3.47-.44.03c-.27-.79-.69-1.46-1.26-2-.57-.54-1.23-.79-1.98-.73-.53.04-.93.22-1.22.53-.29.32-.41.69-.38,1.11.04.5.21.87.52,1.1.3.23.96.56,1.98.98l1.22.5c.54.23.98.49,1.32.79.63.56.98,1.27,1.04,2.13.06.8-.2,1.59-.77,2.35-.57.76-1.55,1.19-2.93,1.3-.32.02-.64.02-.97-.02-.33-.04-.66-.1-.98-.21l-.31-.09c-.07-.01-.14-.03-.21-.04-.07,0-.12,0-.17,0-.16.01-.27.07-.33.17-.05.1-.1.24-.13.42l-.46.03-.29-3.95Z"/><path class="cls-3" d="m84.77,13.56l.46.04c.16,1.21.5,2.11,1.02,2.7.52.59,1.15.91,1.88.97.71.06,1.23-.09,1.56-.43.33-.35.51-.73.54-1.14.04-.48-.08-.88-.37-1.21-.19-.21-.59-.51-1.19-.87l-.97-.6c-.97-.59-1.64-1.15-2.01-1.69-.37-.53-.53-1.17-.47-1.9.06-.78.4-1.48,1-2.11.6-.63,1.47-.9,2.6-.81.58.05,1.13.18,1.65.4.52.22.82.33.9.34.17.01.3-.03.37-.12.07-.1.14-.22.19-.39l.47.04-.28,3.47-.44-.04c-.14-.82-.45-1.54-.93-2.17-.48-.62-1.09-.97-1.84-1.03-.53-.04-.96.07-1.29.34-.33.27-.51.61-.55,1.04-.04.5.07.89.34,1.16.26.28.86.7,1.81,1.28l1.13.69c.5.31.9.64,1.18.98.53.65.77,1.41.7,2.27-.07.8-.44,1.54-1.13,2.2-.68.66-1.71.94-3.09.82-.32-.03-.63-.08-.95-.17-.32-.09-.63-.21-.94-.36l-.3-.14c-.07-.03-.14-.05-.2-.07s-.12-.03-.17-.03c-.16-.01-.28.03-.35.12-.07.09-.13.22-.19.4l-.46-.04.32-3.95Z"/><path class="cls-3" d="m93.77,17.63c.38.07.72-.03,1.03-.28.2-.16.51-.54.95-1.15l5.57-7.64.43.11,1.43,9.02c.16,1.01.3,1.67.43,1.99.13.31.37.51.72.59l-.1.39-5.03-1.25.1-.39c.51.11.85.15,1.03.12.18-.03.3-.17.36-.44.03-.12.03-.32.02-.58-.01-.16-.04-.35-.07-.58l-.16-1.04-3.49-.87c-.38.56-.63.92-.74,1.1-.24.37-.38.64-.42.82-.06.22.05.42.33.6.16.1.42.2.77.29l-.1.39-3.17-.79.1-.39Zm6.64-1.82l-.6-3.96-.13-.03-2.3,3.24,3.02.75Z"/><path class="cls-3" d="m106.26,20.93c.37.15.66.22.86.21.35-.01.62-.21.8-.6l3.36-7.14c.18-.37.16-.7-.04-.97-.12-.16-.36-.34-.72-.56l.17-.37,4.42,2.08c1.79.84,2.92,1.96,3.41,3.35.44,1.27.32,2.63-.37,4.09-.62,1.31-1.57,2.22-2.85,2.72-1.45.57-3,.46-4.65-.32l-4.57-2.15.17-.37Zm3.86,1.43c.03.18.21.34.52.49.86.4,1.71.43,2.54.09.84-.35,1.66-1.38,2.47-3.1.48-1.02.75-1.97.8-2.85.08-1.41-.46-2.38-1.59-2.92-.38-.18-.66-.21-.85-.11-.12.07-.26.25-.4.55l-3.36,7.12c-.13.3-.17.54-.14.72Z"/><path class="cls-3" d="m131.18,25.17c.24,1.51-.14,2.94-1.15,4.29-1.01,1.35-2.27,2.12-3.79,2.32-1.48.19-2.87-.19-4.16-1.15-1.37-1.02-2.15-2.31-2.33-3.87-.16-1.46.21-2.8,1.12-4.02,1-1.34,2.25-2.13,3.74-2.37,1.51-.24,2.93.14,4.27,1.14,1.29.97,2.06,2.18,2.29,3.66Zm-5.52,4.79c.65-.47,1.35-1.21,2.09-2.2,1.02-1.37,1.58-2.55,1.69-3.54.11-1-.18-1.76-.88-2.28-.97-.72-2.07-.64-3.29.25-.65.47-1.33,1.2-2.07,2.18-.74,1-1.25,1.88-1.52,2.63-.49,1.41-.26,2.47.71,3.19.96.72,2.05.64,3.26-.23Z"/><path class="cls-3" d="m128.37,34.64c.38.38.71.59.97.62.26.03.62-.16,1.06-.55l5.25-4.74c.46-.41.68-.77.66-1.07-.01-.2-.18-.52-.52-.96l.3-.27,3.45,3.82c.72.79,1.21,1.51,1.49,2.15.52,1.25.35,2.28-.53,3.07-.65.58-1.38.79-2.2.63-.62-.13-1.16-.37-1.62-.73l-1.1,5.58c-.03.15-.03.27,0,.37.04.1.1.21.19.32l-.28.26-2.24-2.48,1.21-6.12h0s-2.32,2.1-2.32,2.1c-.42.38-.64.7-.66.97-.02.27.15.62.51,1.05l-.3.27-3.62-4.01.3-.27Zm8.31.92c.51.15,1.14-.12,1.89-.79.46-.42.77-.81.92-1.18.25-.63.12-1.23-.41-1.82-.29-.32-.51-.49-.68-.52-.17-.03-.34.04-.52.21l-3.02,2.73c.71.77,1.32,1.22,1.83,1.37Z"/></g><circle class="cls-5" cx="83.06" cy="83.06" r="82.06"/><line class="cls-7" x1="43.11" y1="47.47" x2="123.74" y2="47.47"/><line class="cls-6" x1="33.19" y1="47.47" x2="132.24" y2="47.47"/><line class="cls-8" x1="48.75" y1="132.86" x2="116.5" y2="132.86"/><line class="cls-8" x1="104.47" y1="139.78" x2="60.78" y2="139.78"/><g><path class="cls-3" d="m40.88,133.52c.34.65.54,1,.6,1.05.15.14.33.19.52.16.2-.03.37-.11.51-.21l.33.3-2.53,2.81-.3-.28c.26-.87.4-1.62.42-2.24.02-1.16-.32-2.05-1.03-2.7-.8-.73-1.69-.89-2.65-.51-.96.39-1.97,1.17-3.03,2.33-.78.86-1.32,1.66-1.62,2.39-.57,1.37-.35,2.51.66,3.42.62.56,1.35.9,2.19,1.04.48.08,1.13.08,1.94.02l.09.62c-.94.1-1.7.11-2.26.02-1.01-.15-1.9-.58-2.67-1.28-1.18-1.07-1.86-2.32-2.02-3.74-.18-1.58.32-3.02,1.51-4.34,1.18-1.3,2.56-1.98,4.13-2.02,1.48-.04,2.8.46,3.96,1.51.5.45.92,1,1.27,1.65Z"/><path class="cls-3" d="m39.87,146.39l.21-.35c.41.22.72.33.95.34.34,0,.63-.19.87-.59l3.97-6.75c.24-.41.26-.76.08-1.05-.1-.18-.35-.39-.74-.65l.21-.35,8.03,4.72-1.65,2.81-.34-.2c.35-1,.41-1.79.18-2.37s-.9-1.2-2.02-1.86c-.43-.25-.72-.37-.89-.34-.17.02-.33.16-.48.43l-1.9,3.22c.79.48,1.41.65,1.87.52.46-.13.99-.55,1.61-1.25l.35.21-2.77,4.71-.35-.21c.37-.85.49-1.53.38-2.04-.12-.5-.57-.99-1.36-1.46l-1.98,3.38c-.17.29-.22.54-.13.74.09.2.37.43.84.71.89.52,1.72.78,2.48.76.76-.01,1.64-.37,2.64-1.06l.39.23-2.27,2.57-8.14-4.79Z"/><path class="cls-3" d="m53.23,153.26c.53.15.91.17,1.16.07.25-.11.47-.44.66-1.01l2.3-6.77c.2-.59.22-1.01.06-1.27-.11-.17-.42-.37-.93-.59l.13-.39,4.93,1.67c1.02.35,1.81.74,2.37,1.16,1.08.85,1.43,1.84,1.04,2.96-.28.83-.83,1.38-1.63,1.64-.61.19-1.21.25-1.79.16l1.77,5.46c.04.15.11.26.19.33.08.07.19.13.33.19l-.12.37-3.19-1.09-1.94-6h0s-1.02,2.99-1.02,2.99c-.18.54-.22.93-.1,1.18s.44.47.97.68l-.13.39-5.17-1.76.13-.39Zm7.78-3.28c.52-.12.95-.66,1.27-1.63.2-.59.28-1.09.23-1.49-.08-.68-.5-1.15-1.26-1.4-.41-.14-.69-.18-.86-.12-.16.06-.28.21-.36.44l-1.32,3.89c1.01.33,1.77.43,2.29.31Z"/><path class="cls-3" d="m69.47,147.37l9.65,1.3-.42,3.23-.46-.06c0-1.18-.32-2.02-.98-2.52-.37-.28-.95-.48-1.75-.61l-1.14,8.44c-.08.59-.03,1,.15,1.22.18.22.6.38,1.25.46l-.05.41-5.71-.77.06-.41c.63.08,1.05.04,1.29-.13.23-.17.39-.54.47-1.13l1.14-8.44c-.79-.08-1.4-.04-1.85.13-.82.32-1.36,1.04-1.61,2.17l-.46-.06.45-3.23Z"/><path class="cls-3" d="m82.72,159.19c.46-.03.78-.09.98-.2.32-.18.47-.51.46-.99l-.25-7.83c-.02-.48-.18-.79-.5-.94-.19-.09-.53-.14-1.02-.15v-.41s5.64-.18,5.64-.18v.41c-.49.04-.84.11-1.02.21-.31.17-.46.5-.44.98l.25,7.83c.02.45.15.75.41.89.26.14.64.21,1.14.19v.41s-5.63.18-5.63.18v-.41Z"/><path class="cls-3" d="m93.22,158.6c.45-.11.76-.23.93-.38.26-.22.35-.56.26-1.02l-1.52-7.67c-.09-.46-.3-.74-.62-.84-.2-.06-.53-.06-1.01,0l-.08-.4,8.99-1.78.63,3.2-.39.08c-.39-.95-.86-1.57-1.4-1.88-.54-.3-1.44-.33-2.69-.08-.46.09-.75.2-.85.33-.11.13-.13.34-.07.63l.73,3.67c.86-.15,1.4-.45,1.63-.89.23-.44.34-1.08.33-1.94l.4-.08,1.06,5.36-.4.08c-.28-.83-.62-1.42-1.02-1.74-.41-.33-1.03-.41-1.89-.24l.73,3.69c.1.49.3.77.61.85.31.08.76.05,1.35-.08l.08.4-5.71,1.13-.08-.4Z"/><path class="cls-3" d="m106.89,155.36c.42-.17.71-.34.87-.5.25-.27.29-.63.12-1.08l-2.74-7.33c-.17-.45-.42-.69-.77-.73-.21-.03-.55.04-1.01.19l-.14-.38,5.3-1.98.14.38c-.47.2-.77.37-.92.53-.24.26-.27.62-.11,1.07l2.74,7.34c.16.42.38.66.67.72.29.05.67,0,1.14-.18l.14.38-5.29,1.98-.14-.38Z"/><path class="cls-3" d="m116.89,151.83l-.21-.36c.39-.25.65-.46.76-.66.18-.29.15-.64-.08-1.04l-3.92-6.78c-.23-.41-.53-.6-.88-.59-.2,0-.52.11-.93.32l-.21-.36,8.06-4.66,1.63,2.82-.34.2c-.7-.8-1.36-1.24-1.98-1.33s-1.49.2-2.61.85c-.43.25-.67.45-.74.61-.07.16-.02.37.13.63l1.87,3.24c.8-.45,1.26-.91,1.37-1.37.11-.46.01-1.13-.3-2.01l.35-.21,2.74,4.73-.35.21c-.56-.74-1.09-1.18-1.59-1.33-.49-.15-1.14,0-1.94.47l1.96,3.39c.17.3.36.45.58.47.22.02.56-.11,1.03-.38.89-.52,1.52-1.11,1.89-1.79.36-.67.49-1.61.38-2.82l.39-.22,1.12,3.24-8.18,4.73Z"/><path class="cls-3" d="m129.42,143.62c.29-.29.47-.53.54-.71.13-.33.05-.66-.24-.98l-5.29-5.96c-.28-.31-.58-.43-.91-.35-.19.04-.46.19-.8.45l-.27-.31,3.69-3.28c1.49-1.32,2.98-1.94,4.47-1.84,1.35.09,2.57.75,3.66,1.97.97,1.09,1.44,2.34,1.39,3.73-.05,1.57-.76,2.97-2.14,4.19l-3.82,3.39-.27-.31Zm2.87-3.02c.18.04.4-.06.66-.29.71-.64,1.08-1.41,1.09-2.33.01-.92-.62-2.09-1.9-3.53-.76-.85-1.53-1.48-2.33-1.87-1.28-.63-2.39-.52-3.35.32-.31.28-.46.53-.43.75.01.14.13.34.35.59l5.28,5.95c.23.24.44.38.62.41Z"/></g><line class="cls-8" x1="50.36" y1="33.27" x2="116.48" y2="33.27"/><line class="cls-8" x1="62.78" y1="26.1" x2="104.06" y2="26.1"/></g><g><path class="cls-3" d="m123.58,108.12c-2.39,0-4.96-2.17-5.69-2.83-1.24-1.13-3.33-3.42-3.33-6.03,0-.68.04-1.64.19-2.92-1.69.35-3.32.78-4.88,1.28.06,1.05.15,1.96.23,2.74.23,2.2.45,4.27-1.07,5.95-.62.69-1.76,1.52-3.61,1.52-2.34,0-4.72-1.3-6.9-3.75-.1-.12-.45-.51-.87-1.06-.59.18-1.16.28-1.74.28-1.81,0-3.19-.91-4.12-2.72l-.03-.06c-.03-.06-.06-.13-.09-.19-.39.02-.78.03-1.18.03-2.62,0-5.15-1.55-7.2-4.4-.38-.09-.81-.2-1.3-.33-.29-.08-.61-.16-.94-.24,0,.14,0,.28,0,.42,0,2.35-1.84,4.13-4.27,4.13-1.63,0-3.77-.88-5.59-2.3-1.48-1.16-2.57-2.51-3.17-3.94-1.43.05-3.02.24-4.9.58-.99,1.78-2.96,3.74-5.45,3.74-.77,0-1.42-.2-1.99-.53-.11,1.1-.16,2.19-.16,3.25,0,2.28-1.76,4.58-5.13,4.58-1.87,0-4-.68-5.69-1.83-1.69-1.14-2.83-2.63-3.32-4.3-.46.69-.81,1.25-1,1.57-.22.61-.58,1.16-1.07,1.6-1.1,2.77-3.02,3.21-4.13,3.21-2.35,0-4.87-1.87-6.16-2.99-1.23-1.06-2.16-2.12-2.8-3.17-1.79,2.27-3.23,3.1-4.93,3.1-1.79,0-3.56-.82-5.12-2.38-1.39-1.39-3.01-3.79-3.01-5.99,0-.9.11-1.43,2.26-5.81,1.21-2.46,2.77-5.52,4.29-8.39,1.23-2.33,3.02-5.65,4.58-8.28,2.07-3.49,3.36-5.47,5.82-5.47.49,0,.92.08,1.33.23,0-.03.02-.05.02-.08.45-1.48.86-2.66,1.21-3.51.39-.95,1.44-3.46,4.17-3.46,1.32,0,3.18.73,5.52,2.17,2.18,1.34,3.49,2.56,4.1,3.85,2.71-3.68,4.03-4.92,6.08-4.92.06,0,.11,0,.17,0,1.61-1.92,3.35-2.86,5.3-2.86,2.44,0,5.07,1.77,6.09,2.53,1.67,1.24,2.82,2.54,3.44,3.86,2.12-2.57,3.52-3.83,5.15-4.09,1.13-2.15,2.66-3.23,4.54-3.23,2.04,0,4.37,1.69,5.97,3.1,2.43,2.15,3.72,4.26,3.85,6.27,3.55-4.12,7.68-6.34,11.91-6.34,3.08,0,5.51,3.01,7.28,5.63.19.29.56.84.97,1.53.65-1.12,1.3-2.18,1.91-3.14,2.88-4.5,4.24-5.73,6.32-5.73,2.34,0,4.83,1.63,6.1,2.61,2.38,1.82,3.69,3.7,3.9,5.59.86-1.66,1.71-3.19,2.51-4.52,2.47-4.12,4.3-6.35,6.91-6.35s5.07,1.5,7.29,4.33c.47.59,2.79,3.68,2.79,6.09,0,1.62-.8,2.55-2.72,4.8-1.73,2.02-4.36,5.1-6.85,8.9,3.25-.27,6.21-.41,8.58-.41,4.72,0,7.51.45,8.72,2.8,1.23,2.39.81,5.52-1.23,9.05-.24.42-2.46,4.18-4.71,5.34-.8.41-1.57.46-2.07.46-.8,0-1.84-.14-3.56-.38-2.73-.37-7.1-.97-12.13-1.1-.14,1.06-.21,2.12-.21,3.14,0,3.37-.05,4.97-.33,6.14-.26,1.09-1.25,3.64-4.71,3.64h-.16Zm-23.84-31.53c-1.03.32-2.21.81-3.35,1.54-2.86,1.84-4.28,4.44-4.32,7.95.55-.34,1.14-.73,1.72-1.15,1.93-1.42,2.64-2.43,2.78-2.77.05-2.88,1.75-4.39,3.54-4.72-.17-.28-.29-.57-.38-.85Zm22.87-4.53c-.24.29-.5.61-.78.94-1.97,2.37-4.67,5.63-7.02,9.31,1.25-.25,2.53-.49,3.86-.72,1-2.72,2.18-5.6,3.52-8.58.14-.32.28-.63.43-.94Z"/><path class="cls-3" d="m150.32,80.92c-.53-1.03-1.82-1.63-6.8-1.63-3.39,0-7.87.29-12.64.81,3.11-5.66,7-10.22,9.26-12.86,1.74-2.03,2.21-2.58,2.21-3.4,0-1.23-1.21-3.33-2.33-4.76-1.25-1.6-3.23-3.5-5.59-3.5-1.16,0-2.41.89-5.06,5.3-1.77,2.96-3.79,6.9-5.67,11.11-1.62,3.62-2.89,6.81-3.89,9.61-3.75.63-6.97,1.29-9.74,1.95,2.77-5.54,6.93-10.55,9.64-13.82,2.46-2.96,3.17-3.86,3.17-4.87,0-1.72-1.68-3.37-3.09-4.44-.66-.51-2.97-2.16-4.79-2.16-.87,0-1.7.34-4.51,4.74-1.23,1.93-2.56,4.21-3.86,6.63-.57-1.88-2.39-4.61-2.63-4.97-3.16-4.68-4.91-4.68-5.49-4.68-4.51,0-8.98,3.1-12.59,8.72-2.21,3.44-3.89,7.59-4.5,10.92-.32-.17-.6-.21-.87-.21-.54,0-1.07,0-1.6,0,.96-2.91,2.29-6.14,3.32-8.64,1.61-3.92,2.18-5.38,2.18-6.29,0-1.82-1.7-3.71-3.13-4.98-.68-.6-3.01-2.56-4.54-2.56s-2.45,1.4-3.16,3.26c-.24-.05-.48-.08-.73-.08-.99,0-2,.66-5,4.43-2.22,2.78-4.7,6.25-6.4,8.67-.93,1.33-1.86,2.69-2.75,4.01,1.61-3.23,3.27-6,4.53-8.13,1.69-2.82,2.22-3.75,2.22-4.63,0-.99-.54-2.58-3.12-4.5-1.36-1.01-3.33-2.1-4.8-2.1s-2.92.96-4.32,2.98c-.44-.08-.83-.12-1.15-.12-.94,0-1.71.44-4.67,4.49-1.51,2.07-3.47,4.94-5.84,8.54.23-.67.45-1.31.65-1.89,1.64-4.76,2.02-5.93,2.02-6.59,0-.82-.41-1.92-3.47-3.8-.91-.56-3.15-1.85-4.39-1.85s-1.84,1.34-2.17,2.13c-.32.78-.71,1.89-1.14,3.31-.25.82-.52,1.74-.79,2.73-.05-.03-.1-.07-.14-.1-1.28-.89-1.8-1.26-2.48-1.26-1.03,0-1.71.61-3.96,4.41-1.53,2.58-3.31,5.88-4.52,8.18-1.51,2.85-3.06,5.89-4.26,8.33-2.04,4.15-2.04,4.47-2.04,4.86,0,1.37,1.19,3.28,2.37,4.46,1.14,1.15,2.39,1.75,3.59,1.75,1.11,0,2.52-.55,6.3-6.91-.14,1.08-.22,2-.22,2.68,0,1,.53,2.64,3.06,4.82.67.58,2.99,2.47,4.75,2.47,1.34,0,1.96-1.24,2.31-2.38.57-.33.81-.78.9-1.14.48-.89,3.22-4.95,6.05-9.13-.72,3.47-1.16,6.08-1.16,6.82v.13c.29,3.38,4.33,5.45,7.11,5.45,2.05,0,2.97-1.22,2.97-2.42,0-2.29.23-4.53.62-6.72.37-.06.77-.14,1.18-.23.99,1.55,1.64,2.06,2.5,2.06,1.52,0,2.93-1.4,3.65-2.79.1-.19.25-.44.45-.73,2.29-.45,4.71-.81,7.03-.81.29,0,.57,0,.85,0,.41,3.41,4.89,6.25,7.14,6.25,1.39,0,2.11-.99,2.11-1.97,0-.67-.1-1.3-.23-2.1-.05-.34-.11-.72-.17-1.14,1.58.33,2.94.68,4.02.97.93.24,1.57.41,2.06.49,1.71,2.66,3.83,4.17,5.91,4.17,1.03,0,1.99-.06,2.89-.18,0,.56.08,1.09.3,1.51l.04.07c.26.5.79,1.55,2.2,1.55.6,0,1.3-.19,2.57-.76.65,1.12,1.5,2.1,1.65,2.26,1.23,1.38,3.14,3.02,5.29,3.02.85,0,1.53-.27,2.01-.8.87-.97.73-2.29.52-4.28-.13-1.19-.28-2.66-.29-4.49,2.99-1.09,6.23-1.9,9.69-2.41-.54,2.72-.65,4.54-.65,5.57,0,2.88,4.71,6.7,6.87,6.7h.16c.58,0,2.13,0,2.61-1.99.23-.96.27-2.51.27-5.64,0-1.81.19-3.59.54-5.33,5.94.01,11.14.72,14.25,1.15,1.57.22,2.61.36,3.27.36.3,0,.7-.03,1.08-.22,1.16-.6,2.8-2.72,3.83-4.5,1.15-2,2.29-4.83,1.18-6.99Zm-60.85,3.43c0-4.33,1.79-7.67,5.31-9.93,2.45-1.57,5.15-2.24,6.97-2.45,0,.01-.01.02-.02.04-.35.83-.71,1.69-.16,2.51.31.46.82.73,1.38.73.3,0,.62-.08.93-.22-.51,1.06-1.04,2.21-1.58,3.43-.65-.55-1.28-.83-1.89-.83-.36,0-2.13.13-2.13,2.77,0,.81-.96,2.39-3.66,4.37-1.83,1.35-3.73,2.33-4.56,2.67-.23-.36-.6-1.3-.6-3.1Z"/><path class="cls-2" d="m148.95,81.63c-.62-1.19-9.9-1-20.74.33,4.77-10.05,12.6-17.28,12.6-18.11,0-1.2-3.21-6.72-6.37-6.72-1.88,0-9.18,13.49-13.45,25.86-4.71.77-9.42,1.72-13.6,2.86,4.05-10.39,13.97-19.52,13.97-20.98,0-1.83-4.51-5.07-6.34-5.07-1.07,0-7.82,10.79-12.26,21.56-1.34-1.99-2.93-3.23-2.93-.94,0,3.95-8.93,8.68-9.9,8.68s-2-1.58-2-4.74c0-11.27,11.03-14,15.07-14,1.79,0-.74,3.37-.04,3.37s2.32-1.75,2.32-3.15-4.52-9.05-6.75-9.05c-9.06,0-15.79,14.52-15.79,20.54,0,.75.06,1.51.17,2.26-.91-1.84-1.87-3.37-2.33-3.37-1.28,0-2.5.01-3.69.04,1.72-6.27,6.04-15,6.04-16.51,0-2.2-4.92-5.99-6.12-5.99-.79,0-1.54,1.5-2.22,3.83-.56-.39-1.14-.65-1.67-.65-1.54,0-11.2,13.62-16.01,21.19-.98.2-1.81.39-2.51.58,3.72-10.1,9.57-17.62,9.57-18.96,0-1.96-4.55-5.06-6.38-5.06-1.21,0-2.43,1.21-3.61,3.18-.69-.2-1.35-.32-1.86-.32-1.34,0-10.51,14.22-14.86,21.08,0-.06,0-.12,0-.17,0-2.55,5.48-16.75,5.48-17.89s-5.18-4.11-6.32-4.11c-.54,0-1.8,3.9-3.17,9.06-1-.46-3.19-2.24-3.56-2.24-1.35,0-13.24,23.32-13.24,24.25,0,1.17,2.22,4.67,4.42,4.67s8.88-13.32,8.88-13.32l1.46-5.02c-1.5,6.61-2.72,13.15-2.72,15.66,0,2.08,4.64,5.75,6.27,5.75.19,0,.36-.19.53-.52.05-.04.07-.09.07-.15,0-.02.02-.08.06-.14,0,0,0-.01,0-.02.67-1.32,6.45-9.77,11.94-17.9-1.81,7.11-2.96,13.46-2.96,14.45.3,3.53,7,5.19,7,3.16,0-2.76.33-5.47.87-8.09.87-.09,1.97-.32,3.22-.6.66,1.15,1.39,2.26,1.75,2.26.74,0,1.74-.91,2.28-1.96.18-.34.49-.83.91-1.41,2.54-.52,5.29-.96,7.94-.96.82,0,1.61.03,2.39.07-.02.42-.04.76-.04.98,0,3.31,6.21,6.36,6.21,4.78,0-1.15-.39-2.39-.61-5.13,4.46.76,7.56,1.87,8.43,1.87.1,0,.17-.07.21-.18,1.4,2.53,3.28,4.29,5.1,4.29s3.32-.2,4.75-.54c-.32,1.2-.42,2.26-.19,2.7.5.96.55,1.29,4.23-.53.07,1.22,3.32,5.83,6.14,5.83,2.09,0,.7-2.51.7-8.27,0-.28.02-.55.03-.83,4.35-1.71,8.85-2.67,13.18-3.15-.67,2.76-1.08,5.3-1.08,7.38,0,1.96,4,5.16,5.32,5.16s1.49.13,1.49-6.08c0-2.35.32-4.64.85-6.86,10.27-.14,18.37,1.83,19.13,1.45,1.3-.67,5.8-6.6,4.35-9.41Zm-82.63-.08c1.96-2.4,4.06-4.94,5.92-7.23-.34,2.38-.62,4.74-.86,6.87-1.82.1-3.5.22-5.06.36Z"/></g><circle class="cls-3" cx="141.57" cy="124.12" r="1.64"/><circle class="cls-3" cx="143.21" cy="44.23" r="1.64"/><circle class="cls-3" cx="22.36" cy="44.23" r="1.64"/><circle class="cls-3" cx="24" cy="124.12" r="1.64"/><line class="cls-5" x1="29.57" y1="54.64" x2="136.83" y2="54.64"/><line class="cls-5" x1="29.58" y1="110.81" x2="136.82" y2="110.81"/><line class="cls-9" x1="40.52" y1="40.37" x2="126.32" y2="40.37"/></g><polygon class="cls-4" points="118.56 132.86 48.96 132.86 36.91 123.42 30.13 110.81 137.39 110.81 130.19 121.34 118.56 132.86"/><g><path class="cls-1" d="m66.87,123.63v2.64h-8.16v-2.17s3.62-3.75,3.62-3.75c.23-.24.42-.47.56-.71.15-.24.22-.44.22-.61,0-.18-.06-.31-.19-.41s-.3-.14-.53-.14c-.39,0-.83.12-1.32.36-.49.24-1,.56-1.51.98l-1.27-2.48c1.58-1.08,3.13-1.62,4.64-1.62.71,0,1.35.12,1.93.36.57.24,1.03.57,1.36.99.33.42.5.91.5,1.45s-.18,1.13-.53,1.7c-.36.57-.86,1.17-1.51,1.82l-1.6,1.59h3.8Z"/><path class="cls-1" d="m78.75,117.15c.82.91,1.23,2.22,1.23,3.92s-.41,3.01-1.23,3.93c-.82.92-2,1.38-3.53,1.38s-2.72-.46-3.54-1.37c-.82-.91-1.23-2.23-1.23-3.94s.41-3.02,1.23-3.93c.82-.91,2-1.36,3.54-1.36s2.71.46,3.53,1.37Zm-4.27,1.39c-.18.18-.31.47-.39.87-.08.4-.12.96-.12,1.67s.04,1.27.12,1.68c.08.41.21.7.39.88.18.18.43.27.74.27s.55-.09.73-.27c.18-.18.31-.47.39-.88.08-.41.12-.96.12-1.68s-.04-1.27-.12-1.67c-.08-.4-.21-.69-.38-.87s-.42-.27-.73-.27-.56.09-.74.27Z"/><path class="cls-1" d="m91.78,123.63v2.64h-8.16v-2.17s3.62-3.75,3.62-3.75c.23-.24.42-.47.56-.71.15-.24.22-.44.22-.61,0-.18-.06-.31-.19-.41s-.3-.14-.53-.14c-.39,0-.83.12-1.32.36-.49.24-1,.56-1.51.98l-1.27-2.48c1.58-1.08,3.13-1.62,4.64-1.62.71,0,1.35.12,1.93.36.57.24,1.03.57,1.36.99.33.42.5.91.5,1.45s-.18,1.13-.53,1.7c-.36.57-.86,1.17-1.51,1.82l-1.6,1.59h3.8Z"/><path class="cls-1" d="m103.53,121.81v2.46h-1.19v2h-3.13v-2h-4.43v-2.24l2.52-6.15h3.23l-2.36,5.93h1.04v-1.99h3.13v1.99h1.19Z"/></g></g></g></svg>