<?xml version="1.0" encoding="UTF-8"?><svg id="Layer_2" xmlns="http://www.w3.org/2000/svg" viewBox="0 0 137.98 137.98"><defs><style>.cls-1{fill:none;}.cls-1,.cls-2,.cls-3{stroke:#231f20;stroke-miterlimit:10;}.cls-4,.cls-3{fill:#231f20;}.cls-2,.cls-5{fill:#fff;}.cls-2,.cls-3{stroke-width:2.5px;}.cls-6{fill:#ffcb1b;}</style></defs><g id="Layer_1-2"><path class="cls-3" d="M69.99,136.73c-36.8,0-66.74-29.94-66.74-66.74S33.19,3.25,69.99,3.25s66.74,29.94,66.74,66.74-29.94,66.74-66.74,66.74Z"/><path class="cls-2" d="M67.99,134.73C31.19,134.73,1.25,104.79,1.25,67.99S31.19,1.25,67.99,1.25s66.74,29.94,66.74,66.74-29.94,66.74-66.74,66.74Z"/><path class="cls-1" d="M67.99,101.64c-18.55,0-33.65-15.09-33.65-33.65s15.09-33.65,33.65-33.65,33.65,15.09,33.65,33.65-15.09,33.65-33.65,33.65Z"/><rect class="cls-5" x="7.22" y="49.11" width="121.79" height="40.43"/><rect class="cls-4" x="50.82" y="89.54" width="34.59" height="14.48"/><path class="cls-4" d="M26.58,104.3l1.1-1.96-2.94-3.78-2.17.59-1.2-1.53,10.37-2.64,1.2,1.54-5.12,9.37-1.24-1.59ZM26.42,98.1l2.12,2.72,2.2-3.88-4.31,1.16Z"/><path class="cls-4" d="M35.4,99.74l1.66,1.35-1.45,6.95,6.48-2.88,1.66,1.35-6.17,7.61-1.34-1.08,4.43-5.46-6.16,2.75-.94-.76,1.41-6.61-4.43,5.46-1.33-1.08,6.17-7.61Z"/><path class="cls-4" d="M50.55,110.52c.35.66.35,1.33.02,2.01-.24.49-.58.83-1.02,1.05-.44.21-.93.26-1.47.14.53.4.87.88,1,1.43.14.56.06,1.13-.23,1.71-.37.75-.96,1.2-1.75,1.35-.79.14-1.69-.03-2.7-.53l-4.02-1.98,4.33-8.79,3.91,1.92c.94.46,1.58,1.02,1.93,1.68ZM46.32,116.45c.41-.06.7-.28.89-.66.18-.36.17-.72-.03-1.07-.2-.35-.57-.66-1.11-.91l-2.13-1.05-1.15,2.32,2.13,1.05c.53.27,1,.38,1.4.32ZM47.93,112.6c.34-.07.6-.28.77-.62.17-.33.17-.66.01-.96-.16-.31-.45-.56-.89-.77l-2.13-1.05-1.05,2.13,2.13,1.05c.44.21.82.29,1.17.22Z"/><path class="cls-4" d="M56.89,121.97l-.3-2.23-4.62-1.24-1.38,1.78-1.88-.5,6.69-8.35,1.88.5,1.56,10.56-1.95-.52ZM53.02,117.12l3.33.89-.58-4.42-2.74,3.53Z"/><path class="cls-4" d="M65.98,114.98c-.51-.21-.97-.32-1.37-.35-.45-.03-.81.03-1.08.17-.27.15-.42.37-.44.67-.02.27.05.5.22.7.17.2.39.36.65.5.27.14.63.29,1.1.46.65.24,1.17.48,1.58.7.41.23.75.54,1.02.94.27.4.38.92.34,1.54-.04.6-.24,1.1-.59,1.52-.35.42-.82.72-1.4.92-.58.19-1.23.26-1.96.21-.76-.05-1.5-.25-2.2-.59-.71-.34-1.31-.76-1.82-1.28l.9-1.54c.46.49.99.89,1.58,1.2.6.3,1.16.48,1.69.51.52.04.94-.03,1.25-.21.31-.18.48-.44.51-.78.02-.28-.05-.52-.22-.71-.17-.2-.39-.36-.66-.49-.27-.13-.64-.29-1.12-.46-.65-.24-1.17-.47-1.58-.69s-.74-.52-1.01-.92c-.27-.4-.38-.91-.34-1.52.04-.57.23-1.05.56-1.45.33-.4.79-.7,1.36-.89.57-.19,1.22-.26,1.95-.21.63.05,1.25.18,1.86.42.61.23,1.14.52,1.6.87l-.87,1.58c-.48-.34-.98-.62-1.49-.82Z"/><path class="cls-4" d="M73.9,114.66c-.54-.12-1.01-.16-1.41-.12-.45.04-.79.16-1.04.35-.24.19-.35.44-.32.73.03.27.14.49.34.65.2.16.44.29.72.38s.67.18,1.16.28c.68.13,1.24.28,1.68.43.44.16.83.41,1.16.76.33.35.53.84.59,1.46.06.59-.05,1.13-.33,1.6-.28.47-.69.85-1.23,1.14-.54.29-1.17.46-1.9.53-.76.07-1.52,0-2.27-.21-.75-.21-1.42-.53-2-.96l.63-1.66c.54.41,1.12.71,1.76.92.64.2,1.22.28,1.75.23.52-.05.92-.19,1.2-.42.28-.23.4-.51.37-.86-.03-.28-.14-.5-.34-.66s-.44-.29-.73-.37-.68-.17-1.18-.27c-.68-.13-1.24-.27-1.67-.42-.44-.15-.82-.39-1.15-.74s-.53-.83-.59-1.44c-.05-.57.05-1.08.31-1.53.26-.45.66-.82,1.19-1.1.53-.29,1.16-.46,1.88-.53.63-.06,1.27-.03,1.9.1.63.13,1.21.33,1.72.6l-.6,1.7c-.53-.26-1.07-.45-1.61-.56Z"/><path class="cls-4" d="M86.22,120l-1.4-1.75-4.6,1.32-.26,2.23-1.87.54,1.43-10.6,1.87-.54,6.78,8.25-1.94.55ZM80.41,117.83l3.31-.95-2.77-3.49-.54,4.44Z"/><path class="cls-4" d="M91.53,107.38c.88,0,1.69.24,2.42.69.74.46,1.33,1.1,1.77,1.93.44.83.64,1.68.59,2.55-.05.86-.32,1.66-.81,2.4-.5.74-1.19,1.34-2.07,1.81l-3.54,1.87-4.58-8.67,3.6-1.9c.87-.46,1.74-.68,2.62-.68ZM93.99,114.13c.3-.47.45-.98.46-1.54.01-.56-.13-1.12-.42-1.67-.29-.55-.68-.99-1.16-1.3-.48-.31-1-.47-1.56-.49-.56-.01-1.11.12-1.65.4l-1.92,1.01,3.03,5.74,1.98-1.05c.53-.28.94-.65,1.24-1.12Z"/><path class="cls-4" d="M99.55,101.17c.89-.18,1.76-.13,2.6.16.84.29,1.57.79,2.17,1.5.6.71.98,1.51,1.13,2.39.15.88.06,1.75-.25,2.61-.32.86-.85,1.6-1.59,2.23-.74.63-1.56,1.03-2.46,1.2s-1.77.12-2.62-.17-1.57-.79-2.18-1.5c-.6-.71-.98-1.51-1.12-2.39-.15-.88-.06-1.74.27-2.59.32-.85.86-1.59,1.6-2.22s1.56-1.03,2.45-1.21ZM97.23,105.06c-.2.56-.25,1.12-.15,1.71s.35,1.11.75,1.58.88.8,1.44,1,1.14.24,1.72.14c.58-.1,1.1-.34,1.55-.73.45-.38.77-.85.96-1.4.19-.55.23-1.12.12-1.7-.11-.58-.36-1.11-.76-1.58-.4-.47-.88-.8-1.43-1-.55-.2-1.12-.25-1.69-.14-.57.1-1.09.34-1.53.72-.46.39-.78.86-.99,1.41Z"/><path class="cls-4" d="M112.83,99.91l-3.33-.44c-.04.06-.11.16-.2.28l-1.36,1.75,2.28,1.77-1.15,1.48-7.74-6.02,2.51-3.23c.78-1,1.61-1.59,2.5-1.78.89-.18,1.76.05,2.6.71.6.47,1.02,1,1.24,1.6.22.59.25,1.22.07,1.89l3.89.29-1.32,1.69ZM106.64,100.48l1.36-1.75c.44-.56.65-1.08.63-1.57-.01-.48-.26-.91-.74-1.29-.47-.37-.94-.49-1.4-.38s-.92.45-1.35,1.01l-1.36,1.75,2.86,2.23Z"/><path class="cls-5" d="M62.07,98.12v1.51h-4.67v-1.24s2.07-2.15,2.07-2.15c.13-.14.24-.27.32-.41.09-.14.13-.25.13-.35,0-.1-.04-.18-.11-.23s-.17-.08-.3-.08c-.22,0-.47.07-.76.2-.28.14-.57.32-.87.56l-.73-1.42c.9-.62,1.79-.92,2.65-.92.41,0,.78.07,1.1.2s.59.33.78.57.28.52.28.83-.1.65-.31.97-.49.67-.87,1.04l-.92.91h2.17Z"/><path class="cls-5" d="M67.37,94.41c.47.52.7,1.27.7,2.24s-.23,1.72-.7,2.25c-.47.53-1.14.79-2.02.79s-1.56-.26-2.03-.79c-.47-.52-.71-1.27-.71-2.25s.23-1.73.71-2.25c.47-.52,1.14-.78,2.03-.78s1.55.26,2.02.79ZM64.92,95.2c-.1.1-.18.27-.22.5-.05.23-.07.55-.07.96s.02.73.07.96c.04.23.12.4.22.5.1.1.24.15.42.15s.31-.05.42-.15.17-.27.22-.5c.04-.23.07-.55.07-.96s-.02-.73-.07-.96c-.05-.23-.12-.39-.22-.5-.1-.1-.24-.15-.42-.15s-.32.05-.42.15Z"/><path class="cls-5" d="M73.27,98.12v1.51h-4.67v-1.24s2.07-2.15,2.07-2.15c.13-.14.24-.27.32-.41.08-.14.13-.25.13-.35,0-.1-.04-.18-.11-.23-.07-.05-.17-.08-.3-.08-.22,0-.47.07-.75.2-.28.14-.57.32-.87.56l-.73-1.42c.91-.62,1.79-.92,2.66-.92.41,0,.77.07,1.1.2s.59.33.78.57.28.52.28.83-.1.65-.31.97-.49.67-.87,1.04l-.92.91h2.17Z"/><path class="cls-5" d="M78.6,97.08v1.41h-.68v1.15h-1.79v-1.15h-2.54v-1.28l1.44-3.52h1.85l-1.35,3.39h.59v-1.14h1.79v1.14h.68Z"/><path class="cls-4" d="M124.99,53.98l-1.49-1.49h0s0,0,0,0h-8.15v17.41h-12.97v-15.92h0l-1.49-1.49h0s-8.14,0-8.14,0v2.26c-2.16-1.33-4.63-2.11-7.27-2.28h-1.91c-3.28.21-6.37,1.43-8.92,3.53-2.71,2.23-4.56,5.27-5.31,8.62l-6.47-11.21-1.49-1.49-10.41,18.03v-16.01h0s-1.49-1.49-1.49-1.49h0s0,0,0,0h-7.51l-9.41,16.3-8.55-14.81h0s-1.49-1.49-1.49-1.49h0s0,0,0,0h-7.51v31.23h.01l1.48,1.48h0s8.14.01,8.14.01v-14.14l7.61,13.17h0s1.49,1.5,1.49,1.5h0s0,0,0,0l7.61-13.18v11.15l1.49,1.49h10.31l3.26-5.65h12.3l2.4,4.16h0l1.49,1.49h0s8.6,0,8.6,0l-.57-.99c1.73.64,3.57.99,5.44.99,2.34,0,4.61-.54,6.68-1.52v.02h0l1.49,1.49h0s8.14,0,8.14,0v-5.63h12.97v4.13h0l1.49,1.49h0s8.15,0,8.15,0v-31.18h0ZM61.96,69.87l.59-1.03.59,1.03h-1.19ZM92.75,74.36l-2.4-1.39-.81.72c-1.37,1.21-3.13,1.88-4.97,1.88-1.71,0-3.29-.61-4.56-1.59-.81-1.11-1.33-2.45-1.43-3.91-.01-.17-.02-.34-.02-.5s0-.34.02-.52c.26-3.92,3.55-6.98,7.48-6.98,1.83,0,3.59.67,4.96,1.87l.81.71.91-.53v10.24Z"/><path class="cls-6" d="M116.85,53.98v17.41h-17.46v-17.41h-5.15v3.79c-2.32-2.18-5.38-3.6-8.76-3.81h-1.81c-3.05.19-5.84,1.36-8.07,3.19-3.14,2.59-5.15,6.51-5.15,10.9,0,1.1.13,2.18.37,3.21l-6.87-11.9-2.58-4.46-2.58,4.46-6.94,12.01-2.97,5.15-.91,1.58v-24.17h-5.15l-10.59,18.34-10.59-18.34h-5.15v28.24h5.15v-19.32l8.02,13.89,2.58,4.46,2.58-4.46,8.02-13.89v19.32h7.95l3.26-5.65h14.66l3.26,5.65h5.15l-2.24-3.88c.24.23.47.46.73.67,2.44,2.01,5.57,3.21,8.97,3.21,3.74,0,7.14-1.47,9.67-3.85v3.85h5.15v-5.63h17.46v5.63h5.16v-28.19h-5.16ZM57.01,71.37l4.36-7.55,4.36,7.55h-8.72ZM90.53,74.81c-1.59,1.41-3.67,2.26-5.96,2.26-4.76,0-8.66-3.7-8.97-8.38-.02-.2-.02-.41-.02-.62s0-.41.02-.62c.31-4.68,4.21-8.38,8.97-8.38,2.28,0,4.36.85,5.95,2.25l3.72-2.15v17.77l-3.71-2.14Z"/><path class="cls-4" d="M34.24,39.07l-2.19-.52-2.81,3.87,1.17,1.92-1.14,1.58-5.4-9.24,1.14-1.57,10.42,2.33-1.18,1.63ZM28.33,40.94l2.02-2.79-4.33-1.04,2.31,3.82Z"/><path class="cls-4" d="M29.12,29.89l1.63-1.39,6.56,2.71-1.63-6.9,1.63-1.39,6.34,7.47-1.31,1.11-4.55-5.36,1.57,6.57-.92.78-6.23-2.61,4.55,5.36-1.3,1.1-6.34-7.47Z"/><path class="cls-4" d="M46.79,18.61c.74.12,1.27.52,1.62,1.19.25.48.32.97.22,1.45-.1.48-.35.9-.77,1.26.64-.19,1.22-.17,1.75.06.53.22.94.63,1.23,1.21.38.75.39,1.48.03,2.21-.36.72-1.04,1.34-2.04,1.84l-4,2.03-4.43-8.74,3.88-1.97c.93-.47,1.77-.65,2.5-.53ZM46.89,21.95c.15-.32.14-.64-.04-.99-.17-.33-.42-.53-.76-.59-.34-.06-.72.03-1.15.25l-2.12,1.08,1.08,2.12,2.12-1.08c.43-.22.72-.49.87-.8ZM49,25.54c.19-.36.2-.73,0-1.1-.18-.36-.47-.56-.88-.62-.4-.05-.87.06-1.4.34l-2.12,1.08,1.17,2.31,2.12-1.08c.54-.26.9-.57,1.1-.93Z"/><path class="cls-4" d="M59.72,24.08l-1.38-1.77-4.62,1.25-.3,2.23-1.88.51,1.59-10.58,1.88-.51,6.65,8.36-1.95.53ZM53.95,21.82l3.33-.9-2.72-3.53-.6,4.43Z"/><path class="cls-4" d="M66.11,15.43c-.54-.13-1.01-.19-1.41-.16-.45.03-.79.14-1.04.32s-.37.43-.35.72c.02.27.12.49.32.66s.43.3.71.4.67.2,1.15.31c.67.15,1.23.31,1.67.48s.82.43,1.14.79c.32.36.5.86.55,1.48.04.6-.09,1.13-.38,1.59-.29.46-.71.83-1.26,1.1-.55.27-1.19.43-1.91.48-.76.05-1.52-.04-2.26-.28-.74-.24-1.4-.58-1.97-1.01l.68-1.64c.52.42,1.1.75,1.73.97s1.21.31,1.74.28c.52-.03.92-.16,1.21-.38s.42-.5.39-.85c-.02-.28-.12-.5-.32-.67-.19-.17-.43-.3-.72-.39-.29-.09-.68-.2-1.17-.3-.67-.15-1.23-.31-1.66-.47-.43-.16-.81-.42-1.13-.77-.32-.36-.5-.84-.54-1.46-.04-.57.08-1.07.36-1.52.27-.44.68-.8,1.22-1.07.54-.27,1.17-.43,1.9-.47.63-.04,1.27.01,1.9.16.63.15,1.2.36,1.7.65l-.65,1.68c-.52-.27-1.05-.48-1.59-.61Z"/><path class="cls-4" d="M75.34,15.89c-.51-.23-.96-.36-1.36-.41-.45-.05-.81,0-1.08.13-.28.14-.43.36-.47.65-.03.27.04.5.2.71.16.2.37.38.63.52.26.15.62.32,1.08.51.64.27,1.16.52,1.56.77.4.24.73.57.98.98.25.41.35.93.28,1.55-.07.59-.28,1.09-.65,1.5-.37.41-.85.69-1.43.86-.59.17-1.24.21-1.97.13-.76-.08-1.49-.31-2.18-.67-.69-.36-1.28-.81-1.77-1.34l.96-1.5c.44.51.95.93,1.54,1.26.58.33,1.14.52,1.67.58.52.06.94,0,1.26-.16.32-.17.5-.42.54-.76.03-.28-.03-.52-.19-.72-.16-.2-.37-.37-.64-.51-.27-.14-.63-.31-1.1-.5-.64-.27-1.15-.52-1.55-.75-.4-.23-.72-.55-.98-.96-.26-.41-.35-.92-.28-1.53.06-.57.27-1.04.62-1.43.35-.39.81-.67,1.39-.84.58-.17,1.23-.21,1.95-.13.63.07,1.24.23,1.84.49.6.25,1.12.57,1.57.94l-.93,1.54c-.47-.36-.95-.66-1.46-.88Z"/><path class="cls-4" d="M84.39,26.38l-.21-2.24-4.57-1.43-1.45,1.72-1.86-.58,7.03-8.07,1.86.58,1.12,10.62-1.92-.6ZM80.73,21.37l3.29,1.03-.4-4.44-2.89,3.41Z"/><path class="cls-4" d="M96.77,22.51c.47.75.7,1.55.71,2.42,0,.87-.22,1.71-.69,2.53s-1.08,1.44-1.83,1.86c-.75.42-1.58.62-2.46.6-.89-.03-1.77-.29-2.63-.78l-3.47-1.99,4.88-8.5,3.53,2.03c.85.49,1.51,1.1,1.97,1.85ZM92.39,28.2c.55,0,1.07-.15,1.55-.44s.87-.71,1.18-1.25.47-1.1.48-1.67c0-.57-.14-1.1-.42-1.58s-.7-.88-1.22-1.18l-1.88-1.08-3.23,5.63,1.94,1.11c.52.3,1.05.45,1.61.45Z"/><path class="cls-4" d="M106.4,30.22c.29.86.34,1.73.15,2.6s-.6,1.65-1.23,2.33c-.64.68-1.38,1.15-2.24,1.41-.86.25-1.73.27-2.62.06s-1.69-.65-2.4-1.31c-.71-.66-1.21-1.43-1.49-2.3-.28-.87-.33-1.75-.14-2.62.19-.88.6-1.66,1.24-2.34.63-.68,1.38-1.15,2.24-1.4s1.73-.26,2.61-.04c.88.22,1.68.66,2.39,1.32.71.66,1.21,1.42,1.5,2.29ZM102.26,28.37c-.58-.13-1.15-.12-1.71.05-.57.17-1.06.48-1.48.93-.42.45-.69.97-.82,1.55-.13.58-.11,1.16.06,1.72.17.56.47,1.05.91,1.46.43.4.93.66,1.5.79.57.12,1.14.1,1.71-.08.56-.18,1.06-.49,1.48-.94s.69-.96.82-1.54c.13-.57.11-1.14-.06-1.7-.17-.56-.47-1.04-.9-1.44-.44-.41-.95-.68-1.52-.81Z"/><path class="cls-4" d="M105.79,44.39l1.42-3.04c-.05-.06-.12-.15-.21-.28l-1.26-1.82-2.37,1.64-1.07-1.54,8.06-5.57,2.33,3.36c.72,1.04,1.04,2.02.95,2.92s-.58,1.66-1.46,2.27c-.63.44-1.26.67-1.89.71-.63.04-1.24-.13-1.83-.5l-1.45,3.62-1.22-1.76ZM107.09,38.31l1.26,1.82c.4.58.84.94,1.3,1.07.47.13.95.03,1.45-.32.49-.34.75-.75.79-1.22.03-.48-.15-1.01-.56-1.59l-1.26-1.82-2.98,2.06Z"/></g></svg>