<svg width="175" height="175" viewBox="0 0 175 175" fill="none" xmlns="http://www.w3.org/2000/svg">
<circle cx="87.5" cy="87.5" r="87.5" fill="black"/>
<path fill-rule="evenodd" clip-rule="evenodd" d="M145.198 44.9C142.968 40.97 140.288 37.32 137.218 34.02V34.01C130.298 36.38 123.128 37.91 115.848 38.58C117.898 39.78 121.498 42.1 124.428 44.03C126.975 45.7022 130.178 44.6281 133.338 43.5684C134.694 43.1135 136.043 42.6613 137.328 42.43C137.333 42.4712 137.222 43.3479 137.104 44.2869C136.964 45.3998 136.812 46.6 136.828 46.6C136.858 46.59 145.848 55.4 146.348 77.29C148.968 69.48 150.148 61.26 149.838 53.03C149.298 52.02 147.488 48.66 145.198 44.9ZM29.6884 44.89C28.0684 47.56 26.5184 50.27 25.0484 53.02C24.7384 61.25 25.9184 69.47 28.5384 77.28C29.0284 55.41 38.0584 46.58 38.0584 46.58C38.0674 46.58 37.9612 45.7375 37.8443 44.8098C37.7012 43.6738 37.5419 42.41 37.5584 42.41C38.8566 42.64 40.2189 43.098 41.5885 43.5584C44.7448 44.6196 47.9399 45.6937 50.4784 44.02C53.4084 42.09 56.9984 39.77 59.0584 38.57C51.7784 37.91 44.5984 36.37 37.6884 34C34.6084 37.31 31.9184 40.96 29.6884 44.89ZM68.9484 132.24L87.2884 137.86L105.658 132.24L87.3384 126.93L68.9484 132.24ZM79.6684 99.91L87.0984 106.17L94.5284 99.91L87.0984 100.64L79.6684 99.91ZM121.918 96.28C127.498 108.75 126.358 126.02 117.248 140.84L117.238 140.85C158.998 122.32 143.988 84.27 143.988 84.27C134.018 74.91 125.918 63.75 120.088 51.38H120.078C110.258 44.6 97.3484 44.3 87.2184 50.6C80.6184 46.42 72.5984 45.09 64.9884 46.91C61.2284 47.78 57.6384 49.26 54.3484 51.28C48.5284 63.65 40.4184 74.8 30.4584 84.16C28.6684 89.31 27.7984 94.72 27.8584 100.17C27.8984 112.81 33.0384 130.11 57.2384 140.85L57.1584 140.72L57.2384 140.75L56.1784 139.04C48.4184 126.11 47.0884 110.32 52.5684 96.28C48.2484 102.8 45.9484 110.45 45.9684 118.27C46.0084 119.61 45.9284 120.96 45.7084 122.28C37.9784 109.45 33.2584 98.97 37.1584 89.89L43.5784 78.45C52.5812 59.6386 62.8078 64.6876 73.9395 70.1834C75.6547 71.0302 77.3914 71.8876 79.1484 72.67C76.6084 75.62 74.3484 78.81 72.3984 82.18C69.2184 89.38 67.5484 97.15 67.4884 105.02L67.4584 105.15L61.5384 115.72C62.4484 119.69 63.9184 123.51 65.9084 127.06C67.3684 129.25 85.5584 123.74 85.5584 123.74C85.5684 121.71 84.0784 119.99 82.0784 119.69L77.2084 118.96L76.9184 118.7C73.9384 116.02 71.5284 112.78 69.8284 109.15L69.6284 108.67L69.8084 108.18C71.7884 103.18 74.7684 98.64 78.5584 94.83L79.0984 94.31L82.6384 95.32C85.5384 96.15 88.6084 96.15 91.4984 95.32L95.0384 94.31L95.5784 94.83C99.3784 98.64 102.348 103.18 104.328 108.18L104.508 108.67L104.308 109.15C102.608 112.78 100.198 116.02 97.2184 118.7L96.9384 118.96L92.0684 119.69C90.0684 119.99 88.5884 121.71 88.5884 123.74C88.5884 123.74 106.798 129.26 108.238 127.06C110.218 123.5 111.688 119.69 112.608 115.72L106.688 105.15L106.658 105.02C106.588 97.15 104.918 89.38 101.748 82.18C99.7584 78.74 97.4484 75.5 94.8484 72.49C97.5984 68.94 98.8484 64.46 98.3284 60C95.5784 56.7 92.3384 53.86 88.7184 51.56C88.3784 51.33 88.0384 51.11 87.6784 50.88C97.6484 46.49 109.128 47.22 118.468 52.83C124.658 70.91 140.728 86.42 140.728 86.42C143.408 98.41 142.708 107.84 139.918 114.35C137.618 119.72 128.278 133.27 128.518 118.29C128.538 110.46 126.248 102.8 121.918 96.28ZM104.818 79.72C104.818 79.72 104.428 82.49 107.858 82.49C111.288 82.49 111.508 77.95 110.628 77.28L104.818 79.72ZM63.5684 77.28C62.6884 77.95 62.9084 82.49 66.3384 82.49V82.48C69.7684 82.48 69.3784 79.71 69.3784 79.71L63.5684 77.28Z" fill="white"/>
</svg>
