<svg enable-background="new 0 0 1800 1800" viewBox="0 0 1800 1800" xmlns="http://www.w3.org/2000/svg"><path d="m0 0h1800v1800h-1800z" fill="transparent"/><g fill="#db2d1b"><path d="m1434.4 1566.7c-78.9-113-133.6-240.3-161.6-374.4 97.4-105.4 157-246.3 157-400.8 0-144.2-52.5-283-147.7-391-7-8-14.3-15.7-21.7-23.2.5-3.5.8-7.1.8-10.8 0-41.6-33.9-75.5-75.5-75.5-8.8 0-17.3 1.5-25.4 4.4-72.9-47.4-155.8-78.4-242.9-90l-14.6-1.9-6.1 12.2c-12.4 24.9-22.8 51.1-31 77.9-3.9 12.8-7.4 25.9-10.2 39l-2.2 9.8 6.9 7.3c76 80.3 115.2 189.7 107.4 299.9-.5 6.7-1.1 13.4-1.9 20-136.1 17.9-264.3 74.9-371 166.3-145.1 124.5-233.1 298-247.7 488.6-6.7 87.9 2.5 174.8 27.3 258.6l4 13.6h1077zm-464.3-69.1c37.3 11.2 71 32.1 97.7 60.9h-112.1c6.1-19.9 10.9-40.3 14.4-60.9zm-54.5 60.9h-169.5c41.2-44.5 99-70.2 160.8-70.2 8.7 0 17.3.5 25.9 1.5-3.8 23.4-9.6 46.3-17.2 68.7zm59.2-99.1c1.1-13.1 1.7-26.4 1.7-39.6 0-17.8-1-35.3-3-52.6 28.8-6.7 56.7-15.6 83.7-26.4 42.2 76.7 92 149.6 149.1 217.8h-89.6c-35-49.1-85.1-83.7-141.9-99.2zm-7.1-130c-25.9-131.9-107.3-244.2-218.8-311.3 62.2-27.6 115.9-68.8 157.9-119.4 22.2 143.4 66.9 280.8 132.4 408.3-23.1 9-47 16.5-71.5 22.4zm-461.9-340.1h2.2c209.1 0 383.8 149.8 422.4 347.7-29.9 5-60.7 7.7-92 7.7-160.7 0-312.3-69.2-417.6-190.3 20.6-58.8 49.1-114.2 85-165.1zm433.3-134.9c28.7-45.3 49.1-96.1 59.6-150.3 37.5-3.4 75.5-3.6 113.7-.7 45.1 3.5 89 11.2 131.6 23.1-24.7 100.1-34.9 203.8-29.8 307.6 2.4 49.3 8.3 98.1 17.4 146.2-45.3 45.8-98.5 83.7-157.3 111.6-70.1-135.9-115.9-283.5-135.2-437.5zm324.9 290.2c-5.9-37.1-9.9-74.6-11.8-112.4-4.9-99.3 4.7-198.6 28.2-294.4 38.3 13.1 75.5 29.7 111.2 49.8v3.8c.1 134.2-47.9 257.3-127.6 353.2zm26.2-443.7c13.6-47.8 30.7-94.7 51.2-140.1 26.3 57.3 42.6 119 48.2 182.4-32.2-16.6-65.4-30.8-99.4-42.3zm-395.4-369.9c2.2-8.9 4.6-17.7 7.2-26.4 6.2-20.4 13.9-40.4 22.8-59.7 78.3 12.3 152.6 41.4 218.2 84.6l14.4 12.5c7.1-8.2 17.4-12.9 28.3-12.9 20.6 0 37.4 16.8 37.4 37.4s-16.8 37.4-37.4 37.4h-56.4v38h56.4c23.3 0 44.1-10.6 57.9-27.2 3.3 3.6 6.6 7.2 9.9 10.9 25.3 28.7 47.4 59.7 66 92.4-26.9 55.2-48.8 112.7-65.7 171.7-44.8-12.5-91.1-20.6-138.5-24.2-37.3-2.9-74.4-2.8-111 0 .4-4.4.8-8.8 1.2-13.3 8.3-117.5-32-234-110.7-321.2zm-275.4 533.7c97.9-84 215-137.2 339.4-155.8-29.5 131.6-124.2 239.9-253.8 285.8-52.4-24.4-110.1-39.4-170.8-42.7 25.4-31.3 53.9-60.5 85.2-87.3zm-234.6 462.6c3.4-44.8 11.1-88.5 22.9-130.8 111.6 118.8 266.8 186.2 430.8 186.2 33.3 0 65.9-2.8 97.7-8.1 1.6 14.8 2.4 29.9 2.4 45.1 0 10.8-.4 21.6-1.2 32.3-10-1.2-20.1-1.8-30.3-1.8-83.8 0-161.4 40.3-209.7 108.2h-290.4c-20.8-74.9-28.2-152.6-22.2-231.1zm871.6 231.2c-63.5-72.3-118.4-150.4-164.2-233.1 54.7-26.1 104.8-60.3 148.6-101.2 27.7 118.6 75.7 231.6 142.2 334.3z"/><path d="m1044.3 388.7c17.9 4 33.5-11.6 29.5-29.5-2-9-9.3-16.3-18.3-18.3-17.9-4-33.5 11.6-29.5 29.5 2 9 9.3 16.3 18.3 18.3z"/></g></svg>