<svg fill="none" height="64" viewBox="0 0 120 64" width="120" xmlns="http://www.w3.org/2000/svg"><path clip-rule="evenodd" d="m111.945 20.5277c4.039 0 6.426.3858 7.463 2.4212 1.057 2.0708.694 4.7815-1.05 7.8384-.209.3672-2.102 3.6166-4.035 4.6245-.687.3588-1.341.4002-1.773.4002-.686 0-1.574-.1224-3.047-.3267l-.001-.0002c-2.336-.3233-6.074-.8407-10.3825-.9554-.1177.921-.1769 1.831-.1769 2.7208 0 2.9168-.0393 4.3004-.2813 5.3177-.2254.948-1.0692 3.1522-4.0297 3.1522h-.1377c-2.0441 0-4.2442-1.8775-4.8702-2.4524-1.0642-.9801-2.8511-2.9598-2.8511-5.218 0-.585.0358-1.4217.1669-2.5267-1.4473.3031-2.842.6745-4.1733 1.1101.0476.9092.1294 1.696.1995 2.3697.1978 1.9003.384 3.6951-.9131 5.153-.5342.5994-1.504 1.3144-3.0924 1.3144-1.9989 0-4.043-1.1211-5.9101-3.2434-.0893-.1013-.3856-.444-.742-.9219-.5075.1571-.9949.2466-1.4882.2466-1.5474 0-2.7326-.7919-3.5239-2.3545l-.0283-.0557c-.0276-.0541-.0543-.109-.0785-.1638-.3347.0143-.6719.0219-1.0083.0219-2.2393 0-4.4061-1.344-6.163-3.8057-.3152-.0764-.6699-.1696-1.0826-.278l-.0342-.009c-.2504-.0667-.5183-.1367-.8012-.2102.0058.1199.0083.2414.0083.3655 0 2.038-1.5716 3.5753-3.6549 3.5753-1.3972 0-3.2309-.7649-4.7867-1.9957-1.267-1.0021-2.196-2.1764-2.7176-3.4115-1.2261.0439-2.5874.2052-4.1916.4989-.8464 1.5365-2.5298 3.2426-4.6657 3.2426-.6577 0-1.2161-.173-1.701-.4584-.091.9548-.1369 1.897-.1369 2.8163 0 1.9712-1.5082 3.9669-4.3911 3.9669-1.6 0-3.422-.5918-4.8743-1.5837-1.4423-.9852-2.423-2.2802-2.8403-3.7246-.3898.6002-.6961 1.0822-.8572 1.3566-.1853.531-.4983 1.0038-.9148 1.3862-.9407 2.3984-2.5891 2.7757-3.5314 2.7757-2.0107 0-4.1691-1.6225-5.2775-2.59-1.0508-.9185-1.8504-1.8344-2.3938-2.7445-1.53571 1.9645-2.76598 2.6846-4.21994 2.6846-1.53241 0-3.0473-.7142-4.38107-2.065-1.18854-1.2029-2.57488561-3.2839-2.57238663-5.1876 0-.775.09431923-1.2367 1.93221663-5.0281 1.03413-2.1324 2.37123-4.7807 3.66995-7.266 1.05249-2.0152 2.58657-4.8939 3.917-7.1648 1.77283-3.0256 2.87873-4.73684 4.98123-4.73684.4181 0 .7837.07007 1.1392.20008l.0201-.06585c.3881-1.28319.737-2.30383 1.0366-3.03492.3373-.82079 1.2322-2.99861 3.5681-2.99861 1.1301 0 2.7218.63231 4.7283 1.88005 1.8646 1.15909 2.9897 2.21434 3.5072 3.33122 2.3237-3.18771 3.4504-4.26323 5.2007-4.26323.0476 0 .0952.00084.1436.00253 1.3755-1.66477 2.8678-2.47774 4.5379-2.47774 2.0883 0 4.341 1.53054 5.2133 2.18818 1.4272 1.07805 2.4121 2.19747 2.9446 3.34559 1.8179-2.22617 3.0122-3.31942 4.4078-3.5406.9707-1.8581 2.2727-2.79685 3.8819-2.79685 1.7461 0 3.7417 1.45963 5.1089 2.68288 2.0799 1.86401 3.1859 3.68917 3.2919 5.43161 3.0372-3.56676 6.5753-5.49323 10.1969-5.49323 2.6399 0 4.7166 2.60521 6.2306 4.87443.1661.24989.4774.72771.8321 1.32287.5601-.97083 1.111-1.88595 1.6376-2.72003 2.4631-3.89516 3.6266-4.96223 5.4144-4.96223 2.004 0 4.1315 1.41489 5.2207 2.25825 2.0341 1.5736 3.1558 3.20038 3.342 4.84236.7378-1.43684 1.4631-2.76055 2.1475-3.91542 2.1157-3.56761 3.6847-5.5 5.9187-5.5 2.182 0 4.338 1.29501 6.235 3.74658.399.51412 2.385 3.18603 2.385 5.27037 0 1.39965-.683 2.20755-2.331 4.15685-1.482 1.7517-3.734 4.4135-5.864 7.7093 2.786-.2313 5.318-.3554 7.349-.3554zm-40.5659 2.7141c.0468-2.4972 1.4957-3.8023 3.0281-4.0851-.146-.2465-.2512-.4922-.3238-.7353-.8831.2794-1.8888.6998-2.8637 1.3321-2.4497 1.5888-3.6599 3.8412-3.6967 6.8837.4741-.2921.9799-.6289 1.4765-.9979 1.6526-1.2257 2.2561-2.102 2.3796-2.3975zm21.8135-8.1703c-.0647.079-.1307.1595-.1978.2415-1.6843 2.0523-4.0004 4.877-6.0128 8.0571 1.0659-.2153 2.1685-.4229 3.3011-.6239.858-2.3544 1.8688-4.8482 3.0122-7.4298.1211-.2735.2429-.5462.3648-.8172-.1483.1826-.3042.3729-.4675.5723z" fill="#f7cb4a" fill-rule="evenodd"/><g fill="#000"><path d="m49.3539 23.0266c.1972-1.8495.4413-3.897.725-5.9589-.8458 1.0664-1.7501 2.1967-2.6632 3.338l-.0009.0011-.0141.0176c-.7808.976-1.5678 1.9597-2.3297 2.9178 1.3196-.1235 2.7431-.231 4.2829-.3156z"/><path clip-rule="evenodd" d="m119.408 22.9489c-1.037-2.0354-3.424-2.4212-7.463-2.4212-2.031 0-4.563.1241-7.349.3554 2.13-3.2958 4.382-5.9576 5.864-7.7093 1.648-1.9493 2.331-2.7572 2.331-4.15685 0-2.08434-1.986-4.75625-2.385-5.27037-1.897-2.45157-4.053-3.74658-6.235-3.74658-2.234 0-3.803 1.93238-5.9187 5.49999-.6844 1.15487-1.4097 2.47859-2.1475 3.91542-.1862-1.64197-1.3079-3.26876-3.342-4.84235-1.0892-.84336-3.2167-2.25825-5.2207-2.25825-1.7878 0-2.9513 1.06707-5.4144 4.96223-.5266.83408-1.0775 1.7492-1.6376 2.72003-.3547-.59516-.666-1.07298-.8321-1.32287-1.514-2.26922-3.5907-4.87444-6.2306-4.87444-3.6216 0-7.1597 1.92648-10.1969 5.49325-.106-1.74244-1.212-3.56761-3.2919-5.43162-1.3672-1.22325-3.3628-2.68288-5.1089-2.68288-1.6092 0-2.9112.93875-3.8819 2.79685-1.3956.22118-2.5899 1.31443-4.4078 3.5406-.5325-1.14812-1.5174-2.26754-2.9446-3.34559-.8723-.65764-3.125-2.18818-5.2133-2.18818-1.6701 0-3.1624.81297-4.5379 2.47774-.0484-.00168-.096-.00253-.1436-.00253-1.7503 0-2.877 1.07552-5.2007 4.26323-.5175-1.11688-1.6426-2.17213-3.5072-3.33123-2.0065-1.24773-3.5982-1.88004-4.7283-1.88004-2.3358 0-3.2308 2.17779-3.5681 2.9986-.2996.73108-.6485 1.75174-1.0366 3.03493l-.0201.06585c-.3555-.13001-.7211-.20008-1.1392-.20008-2.1025 0-3.2084 1.71124-4.98123 4.73684-1.33043 2.2709-2.86451 5.1496-3.917 7.1648-1.29872 2.4853-2.63582 5.1336-3.66995 7.266-1.8378974 3.7914-1.93221663 4.2531-1.93221663 5.0281-.00249898 1.9037 1.38385663 3.9847 2.57238663 5.1876 1.33377 1.3508 2.84866 2.065 4.38107 2.065 1.45396 0 2.68423-.7201 4.21994-2.6846.5434.9101 1.343 1.826 2.3938 2.7445 1.1084.9675 3.2668 2.59 5.2775 2.59.9423 0 2.5907-.3773 3.5314-2.7757.4165-.3824.7295-.8552.9148-1.3862.1611-.2744.4674-.7564.8572-1.3566.4173 1.4444 1.398 2.7394 2.8403 3.7246 1.4523.9919 3.2743 1.5837 4.8743 1.5837 2.8829 0 4.3911-1.9957 4.3911-3.9669 0-.9193.0459-1.8615.1369-2.8163.4849.2854 1.0433.4584 1.701.4584 2.1359 0 3.8193-1.7061 4.6657-3.2426 1.6042-.2937 2.9655-.455 4.1916-.4989.5216 1.2351 1.4506 2.4094 2.7176 3.4115 1.5558 1.2308 3.3895 1.9957 4.7867 1.9957 2.0833 0 3.6549-1.5373 3.6549-3.5753 0-.1241-.0025-.2456-.0083-.3655.2829.0735.5508.1435.8012.2102l.0342.009c.4127.1084.7674.2016 1.0826.278 1.7569 2.4617 3.9237 3.8057 6.163 3.8057.3364 0 .6736-.0076 1.0083-.0219.0242.0548.0509.1097.0785.1638l.0283.0557c.7913 1.5626 1.9765 2.3545 3.5239 2.3545.4933 0 .9807-.0895 1.4882-.2466.3564.4779.6527.8206.742.9219 1.8671 2.1223 3.9112 3.2434 5.9101 3.2434 1.5884 0 2.5582-.715 3.0924-1.3144 1.2971-1.4579 1.1109-3.2527.9131-5.153-.0701-.6737-.1519-1.4605-.1995-2.3697 1.3313-.4356 2.726-.807 4.1733-1.1101-.1311 1.105-.1669 1.9417-.1669 2.5267 0 2.2582 1.7869 4.2379 2.8511 5.218.626.5749 2.8261 2.4524 4.8702 2.4524h.1377c2.9605 0 3.8043-2.2042 4.0297-3.1522.242-1.0173.2813-2.4009.2813-5.3177 0-.8898.0592-1.7998.1769-2.7208 4.3085.1147 8.0465.632 10.3825.9554l.001.0002c1.473.2043 2.361.3267 3.047.3267.432 0 1.086-.0414 1.773-.4002 1.933-1.0079 3.826-4.2573 4.035-4.6245 1.744-3.0569 2.107-5.7676 1.05-7.8384zm-45.0008-3.7922c-1.5324.2828-2.9813 1.5879-3.0281 4.0851-.1235.2955-.727 1.1718-2.3796 2.3975-.4966.369-1.0024.7058-1.4765.9979.0368-3.0425 1.247-5.2949 3.6967-6.8837.9749-.6323 1.9806-1.0527 2.8637-1.3321.0726.2431.1778.4888.3238.7353zm35.1408 11.5227c-2.945-.4069-7.807-1.0787-13.4282-.9989-.4541 1.9206-.7245 3.9053-.7245 5.9365 0 5.2699-.1392 5.2696-1.2088 5.2673l-.0699-.0001c-1.1326 0-4.5572-2.7675-4.5572-4.4677 0-1.8024.3456-3.9957.9223-6.3881-3.7041.4153-7.5527 1.2435-11.2777 2.7259l-.0054.1085c-.0103.2043-.0205.4088-.0205.6124 0 1.7455.1457 3.1463.2584 4.2298.2092 2.011.3047 2.9291-.856 2.9291-2.4113 0-5.1907-3.9914-5.255-5.0509-3.0778 1.5322-3.1944 1.3025-3.593.517l-.0302-.0594c-.1986-.39-.116-1.306.1611-2.3427-1.2219.2913-2.5724.4652-4.0631.4652-1.5574 0-3.1641-1.528-4.3635-3.7154-.0326.0954-.0885.1537-.1769.1537-.3193 0-.9896-.1762-1.9523-.4293-1.2823-.3371-3.0836-.8106-5.265-1.1857.0953 1.2414.233 2.1268.3427 2.8318.0999.6422.1765 1.1348.1765 1.6104 0 1.3693-5.3142-1.2747-5.3142-4.14 0-.1908.0117-.4812.0317-.845-.666-.0363-1.3454-.0616-2.0474-.0616-2.2686 0-4.6214.3782-6.7932.8307-.3564.5099-.6235.9277-.7754 1.2249-.4649.9084-1.3212 1.6977-1.9514 1.6977-.3063 0-.9339-.9675-1.499-1.9602-1.075.2465-2.014.4406-2.7594.5191-.4665 2.2633-.7461 4.6102-.7461 7.0027 0 1.7602-5.7374.3225-5.9911-2.7361 0-.8594.9907-6.3526 2.5373-12.5102-1.0653 1.5969-2.1435 3.2076-3.1808 4.7571-3.5359 5.2819-6.5955 9.8522-7.0395 10.7399l-.0034.0085c-.0017.004-.0034.0082-.0049.0126-.0267.0566-.0468.103-.0468.1216 0 .0566-.025.0979-.0642.1309-.1411.2836-.2913.4491-.4499.4491-1.398 0-5.366-3.1725-5.366-4.9774 0-2.1663 1.045-7.8309 2.3295-13.5538l-1.2511 4.3494s-5.71984 11.5318-7.60364 11.5318-3.7868-3.0315-3.7868-4.0446c.00167-.8104 10.18184-20.9979 11.33454-20.9979.1655 0 .7351.4037 1.3669.8514.6044.4284 1.2658.8971 1.6846 1.0912 1.1668-4.46674 2.2493-7.84187 2.7117-7.84187.9749 0 5.4102 2.56386 5.4102 3.55664 0 .39787-.7544 2.61303-1.658 5.26623-1.3492 3.9615-3.031 8.9-3.031 10.2241 0 .043-.0009.0979-.0017.1494 3.7217-5.9373 11.5732-18.24748 12.7167-18.24748.4323 0 1.0016.10299 1.5908.27859 1.0158-1.70867 2.06-2.75464 3.0916-2.75464 1.5683 0 5.4611 2.67951 5.4611 4.38058 0 .42928-.686 1.59093-1.7116 3.32745-1.7455 2.9558-4.4747 7.5771-6.4788 13.0873.5943-.1604 1.3104-.3284 2.1459-.499 4.1181-6.5527 12.3811-18.34537 13.7015-18.34537.4533 0 .9449.21696 1.4256.55802.5893-2.01343 1.2303-3.31266 1.9039-3.31266 1.0324 0 5.2432 3.27973 5.2432 5.18763 0 .59939-.7795 2.51558-1.7652 4.93848-1.162 2.8563-2.6106 6.4169-3.4063 9.3548 1.0175-.0203 2.0633-.0338 3.1567-.0338.3906 0 1.2136 1.3245 1.9923 2.9209-.0935-.6542-.1436-1.3119-.1436-1.9602 0-5.2155 5.7616-17.78656 13.5205-17.78656 1.9105 0 5.7774 6.62366 5.7774 7.83506s-1.3838 2.7302-1.9831 2.7302c-.231 0-.0524-.4319.1674-.9632.3511-.8487.8071-1.951-.1348-1.951-3.453 0-12.8987 2.3663-12.8987 12.1244 0 2.7319.8747 4.1046 1.7119 4.1046.8363 0 8.4767-4.0953 8.4767-7.5168 0-1.9755 1.3571-.9076 2.5047.818 3.796-9.3259 9.5776-18.66537 10.4932-18.66537 1.56 0 5.4236 2.80107 5.4236 4.38564 0 .42833-.9789 1.62242-2.4076 3.36523-2.7782 3.389-7.2574 8.8529-9.5471 14.7953 3.5773-.9818 7.6103-1.81 11.6433-2.4727 3.6591-10.707 9.9035-22.38997 11.5165-22.38997 2.708 0 5.454 4.77736 5.454 5.81488 0 .21753-.609.93791-1.572 2.07653-2.231 2.63946-6.362 7.52656-9.2112 13.60706 9.2762-1.1514 17.2252-1.3169 17.7522-.2836 1.242 2.4347-2.613 7.57-3.723 8.1491-.232.1215-1.283-.0237-2.943-.2531zm-16.5532-15.3664.1978-.2415c.1633-.1994.3192-.3897.4675-.5723-.1219.271-.2437.5437-.3648.8172-1.1434 2.5816-2.1542 5.0754-3.0122 7.4298-1.1326.201-2.2352.4086-3.3011.6239 2.0124-3.1801 4.3285-6.0048 6.0128-8.0571z" fill-rule="evenodd"/><path clip-rule="evenodd" d="m20.0316 63.9998h-4.6498v-.4759c.216-.0167.4706-.0567.7622-.1192.2924-.0633.4386-.1417.4386-.235 0-.0325-.0033-.0692-.009-.1101-.0058-.0408-.023-.095-.0518-.165l-.7277-1.7937h-2.9471c-.0681.1667-.1429.3618-.225.586-.0813.2233-.152.4234-.2119.5976-.0756.2284-.1208.3926-.1347.4943-.014.1016-.0206.1733-.0206.2133 0 .1309.097.2417.2916.3334.1939.0917.5175.1576.9701.1984v.4759h-3.5007v-.4759c.1322-.0083.2817-.0292.4484-.0642.166-.0341.2974-.0825.3935-.1433.1643-.0976.3039-.2176.4181-.3601.1141-.1425.2094-.3117.2858-.5068.4649-1.1435.9314-2.2896 1.3988-3.4373.4665-1.1478.9832-2.413 1.5491-3.7967h1.2033c.7861 1.9621 1.4013 3.5124 1.8464 4.651.4452 1.1402.8247 2.0846 1.1368 2.8331.0526.1217.1183.2334.1988.3325.0805.1001.1946.1942.3433.2843.1117.065.2423.1142.391.1467.1478.0325.2825.0525.4025.0608zm-4.4855-3.504-1.2354-3.1315-1.2172 3.1315z" fill-rule="evenodd"/><path d="m32.5513 61.1836-.1838 2.8162h-8.58v-.4826c.1532-.0127.3325-.0321.5386-.0591.2053-.0271.3415-.0524.4069-.077.1578-.0583.2671-.1377.3281-.2417.0609-.1031.0923-.2358.0923-.3955v-6.1971c0-.1488-.0242-.2722-.0726-.3686-.0484-.0972-.164-.1851-.3478-.2628-.1362-.0583-.2993-.104-.4893-.1395-.19-.0346-.3424-.0608-.4562-.0777v-.4827h5.1141v.4827c-.1407.0126-.3056.0304-.4956.0524-.1909.0236-.3558.0558-.4956.0963-.1712.0541-.2851.1378-.3415.2502-.0574.1141-.0852.2434-.0852.3871v5.7753c0 .2731.0197.4886.0592.6441.0394.1581.1156.2722.2294.3465.1139.0795.2725.1302.4759.1522.2035.0228.4849.0346.8435.0346.3504 0 .6901-.0194 1.0208-.0591.3298-.0389.5683-.1251.7126-.257.2231-.2104.4517-.5071.6856-.8883.2339-.382.4213-.7311.5611-1.0489z"/><path d="m45.071 61.1836-.1837 2.8162h-8.5801v-.4826c.1533-.0127.3325-.0321.5387-.0591.2052-.0271.3414-.0524.4069-.077.1577-.0583.2671-.1377.328-.2417.061-.1031.0923-.2358.0923-.3955v-6.1971c0-.1488-.0242-.2722-.0726-.3686-.0484-.0972-.164-.1851-.3477-.2628-.1363-.0583-.2994-.104-.4894-.1395-.19-.0346-.3424-.0608-.4562-.0777v-.4827h5.1142v.4827c-.1408.0126-.3057.0304-.4957.0524-.1909.0236-.3558.0558-.4956.0963-.1712.0541-.285.1378-.3415.2502-.0574.1141-.0852.2434-.0852.3871v5.7753c0 .2731.0198.4886.0592.6441.0394.1581.1156.2722.2295.3465.1138.0795.2724.1302.4759.1522.2034.0228.4849.0346.8434.0346.3504 0 .6901-.0194 1.0208-.0591.3299-.0389.5683-.1251.7126-.257.2231-.2104.4517-.5071.6856-.8883.234-.382.4213-.7311.5611-1.0489z"/><path d="m53.8348 63.9998h-5.0079v-.4826c.1147-.0084.2833-.0211.5057-.0372.2224-.0169.3762-.0414.4613-.0743.1573-.0617.2641-.1437.3215-.2443.0573-.1014.086-.2308.086-.3871v-6.2275c0-.1403-.0278-.2646-.0825-.3719-.0556-.1074-.1634-.1936-.325-.2595-.1016-.0414-.2519-.0837-.4518-.1276-.1989-.0432-.371-.0727-.5152-.0896v-.4827h5.0079v.4827c-.1268.0126-.2867.0304-.477.0524-.1911.0236-.3527.0558-.4839.0963-.1651.0541-.2754.1378-.331.2502-.0548.1141-.0826.2426-.0826.3871v6.2216c0 .1488.0287.2756.086.3812.0574.1048.166.191.3276.257.0895.0371.2363.0735.4422.1081.2059.0355.3788.0567.5187.0651z"/><path clip-rule="evenodd" d="m67.6065 63.9998h-4.6498v-.4759c.2161-.0167.4707-.0567.7623-.1192.2924-.0633.4386-.1417.4386-.235 0-.0325-.0033-.0692-.009-.1101-.0058-.0408-.023-.095-.0518-.165l-.7277-1.7937h-2.9471c-.0682.1667-.1429.3618-.2251.586-.0813.2233-.1519.4234-.2119.5976-.0755.2284-.1207.3926-.1347.4943-.0139.1016-.0205.1733-.0205.2133 0 .1309.0969.2417.2916.3334.1938.0917.5174.1576.97.1984v.4759h-3.5007v-.4759c.1323-.0083.2818-.0292.4485-.0642.1659-.0341.2973-.0825.3934-.1433.1643-.0976.3039-.2176.4181-.3601s.2095-.3117.2859-.5068c.4648-1.1435.9314-2.2896 1.3987-3.4373.4666-1.1478.9832-2.413 1.5491-3.7967h1.2033c.7861 1.9621 1.4013 3.5124 1.8465 4.651.4452 1.1402.8246 2.0846 1.1368 2.8331.0525.1217.1182.2334.1987.3325.0805.1001.1947.1942.3434.2843.1117.065.2423.1142.3909.1467.1479.0325.2826.0525.4025.0608zm-4.4855-3.504-1.2353-3.1315-1.2173 3.1315z" fill-rule="evenodd"/><path d="m81.3782 55.6946c-.1122.0135-.2719.0353-.4799.0681s-.3947.1135-.5625.2404c-.1491.1101-.2547.3009-.3153.569-.0622.269-.0925.6641-.0925 1.1852v6.2425h-1.0687l-5.3023-6.7536v4.101c0 .5085.0336.8951.0991 1.159.0664.2656.1728.459.321.5825.1081.0899.2801.1706.5159.2396.2359.0706.4234.1176.5634.142v.4799h-3.6588v-.4799c.1564-.0126.335-.042.5372-.0891.2015-.0471.371-.1202.5069-.2185.1556-.1194.2629-.2992.321-.5388.0573-.2404.0868-.643.0868-1.2095v-4.1371c0-.205-.0311-.3992-.0933-.5824-.0614-.1816-.1589-.3388-.2907-.4699-.1401-.1395-.3006-.2496-.4824-.3303-.1826-.079-.3889-.1421-.6207-.1866v-.4926h3.2035l4.6529 5.9064v-3.3041c0-.5253-.0336-.9153-.1024-1.1717-.0671-.2572-.176-.4463-.3226-.5699-.1171-.0941-.2882-.1748-.5167-.2429-.2277-.0672-.4119-.1143-.5511-.1387v-.4791h3.6522z"/><path d="m89.5592 64c-.6071 0-1.1759-.0982-1.7042-.2955-.5298-.1972-.9903-.4831-1.383-.8576-.3849-.3674-.6884-.8218-.9107-1.3616-.2215-.5406-.333-1.1356-.333-1.784 0-.6437.1123-1.241.3362-1.7888.2239-.5494.5378-1.0238.9425-1.4263.3968-.3937.8732-.6995 1.4293-.9167.5561-.2164 1.1513-.325 1.7862-.325.4581 0 .8772.0567 1.2541.1693.3776.1142.6963.2403.9568.3809l.3625-.3218h.5075l.0526 3.0289h-.5139c-.2916-.9255-.6413-1.6059-1.0485-2.0387-.4087-.4336-.9058-.6517-1.4922-.6517-.7306 0-1.2867.3235-1.6667.9703-.3816.6469-.572 1.5532-.572 2.7207 0 .6597.0653 1.2235.1952 1.6898.1306.4672.3003.8433.5106 1.1276.2255.2979.4916.5151.7983.654.3076.139.647.2077 1.0198.2077.545 0 1.0286-.1478 1.454-.4448.4255-.2955.8135-.7443 1.1632-1.3448l.502.3042c-.1674.3434-.3578.6501-.5721.9216-.2135.2699-.4605.5031-.7401.6987-.3084.214-.6478.3817-1.019.5023-.3713.1214-.8103.1813-1.3154.1813z"/><path d="m105.773 57.4556h-.491c-.124-.3331-.34-.6695-.645-1.011-.306-.3415-.608-.5427-.91-.6044-.129-.0287-.309-.0465-.539-.0532-.23-.0051-.42-.0085-.571-.0085h-1.33v3.3854h.942c.237 0 .452-.0262.646-.0794.194-.0541.37-.1573.529-.3094.099-.0955.199-.2621.3-.5021.102-.2384.167-.448.198-.6247h.491v3.6644h-.491c-.026-.1733-.093-.3906-.198-.6526-.105-.2629-.205-.4421-.3-.5418-.142-.148-.309-.2503-.503-.3069-.194-.0549-.417-.0837-.672-.0837h-.942v2.5325c0 .2646.021.4734.061.6289.041.1539.117.2731.23.3559.107.0778.255.1293.441.1538.188.0254.443.0381.765.0381.151 0 .332-.0026.543-.0068s.396-.0161.554-.0372c.182-.0203.35-.0507.508-.093.156-.0405.273-.1006.351-.1792.207-.202.439-.5105.697-.9256.258-.415.428-.7252.51-.9315h.471l-.174 2.7362h-8.5901v-.4826c.1198-.0085.2837-.0245.4908-.0499.2062-.0245.3516-.0532.4388-.0862.1622-.066.2723-.1496.3287-.2511.0556-.1006.0846-.2299.0846-.3863v-6.1977c0-.1487-.0246-.2713-.0722-.3685-.0467-.0972-.1604-.1843-.3411-.2629-.1128-.0499-.2696-.0955-.4714-.1361-.2027-.0414-.3551-.0676-.4582-.0811v-.4819h8.1191z"/></g></svg>